<?xml version="1.0" encoding="UTF-8" standalone="no"?>
<svg
   mlns="http://www.w3.org/2000/svg" xmlns:xlink="http://www.w3.org/1999/xlink" viewBox="0 0 264.583 132.292" version="1.1" id="category"  width="100%" height="100%" preserveAspectRatio="xMinYMid">

  <style
     id="style815">
.categoryname {font-style:normal;font-variant:normal;font-weight:bold;font-stretch:normal;font-size:21.33333397px;font-family:'open sans';-inkscape-font-specification     :'open sans Bold';fill:#ffffff
}

</style>
  <defs
     id="defs815">
    <linearGradient
       id="linearGradient_main"
       x1="18.976"
       y1="281.766"
       x2="248.28"
       y2="211.101"
       gradientUnits="userSpaceOnUse"
       gradientTransform="translate(0.107,-164.712)">
      <stop
         style="stop-color:#ffa000;stop-opacity:1"
         offset="0"
         id="linearGradient_main_start" />
      <stop
         style="stop-color:#ffa000;stop-opacity:.8"
         offset="1"
         id="linearGradient_main_end" />
    </linearGradient>
  </defs>
 
  <path
   
     d="m 228.56464,121.26078 h 5.76984 c 2.91967,0 5.31798,-2.22452 5.66556,-5.07468 l 5.73507,-57.28124 H 228.3561 v -14.077 h -6.84734 v 14.077 h -17.27474 l 1.04274,8.13338 c 5.94362,1.63363 11.50491,4.58806 14.84168,7.85532 5.00516,4.93564 8.4462,10.04507 8.4462,18.387 z m -59.29721,-3.47581 v -3.44104 h 52.24133 v 3.44104 c 0,1.9117 -1.56411,3.47581 -3.51056,3.47581 H 172.778 c -1.94645,0 -3.51057,-1.56411 -3.51057,-3.47581 z m 52.24133,-24.33062 c 0,-27.80643 -52.24133,-27.80643 -52.24133,0 z m -52.17181,6.98636 H 221.474 v 6.95161 h -52.13705 z"
     id="path2"
     style="stroke-width:3.47580361" />
  <rect
     style="opacity:1;vector-effect:none;fill:url(#linearGradient_main);fill-opacity:1;stroke:#000000;stroke-width:0.009;stroke-linecap:butt;stroke-linejoin:miter;stroke-miterlimit:4;stroke-dasharray:none;stroke-dashoffset:0;stroke-opacity:0;paint-order:fill markers stroke"
     rx="15"
     y="-0.0040052491"
     x="0.107"
     height="132.29201"
     width="264.58301"
     id="rect1366"
     class="rounded-bg" />
  <flowRoot
     xml:space="preserve"
     id="flowRoot856"
     style="font-style:normal;font-variant:normal;font-weight:normal;font-stretch:normal;font-size:40px;line-height:0.60000002;font-family:'open sans';-inkscape-font-specification:'open sans';letter-spacing:0px;word-spacing:0px;fill:#000000;fill-opacity:1;stroke:none"
     transform="translate(-0.75975018,-165.49216)"><flowRegion
       id="flowRegion858"
       style="line-height:1.10000002"><rect
         id="rect860"
         width="240.83412"
         height="117.54895"
         x="8.9270649"
         y="172.55876"
         style="line-height:1.10000002"
         ry="0" /></flowRegion><flowPara
       id="flowPara862"
	   class="categoryname"
       >Schnell-Restaurant, Imbiss</flowPara></flowRoot></svg>
