<?xml version="1.0" encoding="UTF-8" standalone="no"?>
<svg
   mlns="http://www.w3.org/2000/svg" xmlns:xlink="http://www.w3.org/1999/xlink" viewBox="0 0 264.583 132.292" version="1.1" id="category"  width="100%" height="100%" preserveAspectRatio="xMinYMid">

  <style
     id="style815">
.categoryname {font-style:normal;font-variant:normal;font-weight:bold;font-stretch:normal;font-size:21.33333397px;font-family:'open sans';-inkscape-font-specification     :'open sans Bold';fill:#ffffff
}

</style>
  <defs
     id="defs815">
    <linearGradient
       id="linearGradient_main"
       x1="18.976"
       y1="281.766"
       x2="248.28"
       y2="211.101"
       gradientUnits="userSpaceOnUse"
       gradientTransform="translate(0.107,-164.712)">
      <stop
         style="stop-color:#ff5722;stop-opacity:1"
         offset="0"
         id="linearGradient_main_start" />
      <stop
         style="stop-color:#ff5722;stop-opacity:.8"
         offset="1"
         id="linearGradient_main_end" />
    </linearGradient>
  </defs>
 
 <path
     inkscape:connector-curvature="0"
     d="m 174.90937,47.684053 7.25504,65.800647 c 0.43313,3.60948 3.46509,6.38877 7.18284,6.38877 h 36.09471 c 3.71776,0 6.74971,-2.77929 7.18285,-6.38877 l 7.25503,-65.800647 z m 32.48524,61.361007 c -5.99172,0 -10.82842,-4.8367 -10.82842,-10.828417 0,-7.218941 10.82842,-19.491141 10.82842,-19.491141 0,0 10.82842,12.2722 10.82842,19.491141 0,5.991717 -4.83671,10.828417 -10.82842,10.828417 z m 22.84795,-39.704182 h -45.69591 l -1.58816,-14.437884 h 48.83615 z"
     id="path4-9"
     style="stroke-width:3.60947061" />
  <rect
     style="opacity:1;vector-effect:none;fill:url(#linearGradient_main);fill-opacity:1;stroke:#000000;stroke-width:0.009;stroke-linecap:butt;stroke-linejoin:miter;stroke-miterlimit:4;stroke-dasharray:none;stroke-dashoffset:0;stroke-opacity:0;paint-order:fill markers stroke"
     rx="15"
     y="-0.0040052491"
     x="0.107"
     height="132.29201"
     width="264.58301"
     id="rect1366"
     class="rounded-bg" />
  <path
     inkscape:connector-curvature="0"
     style="fill:none;stroke-width:4.1379714"
     d="m 157.26746,34.014951 h 99.3113 v 99.311309 h -99.3113 z"
     id="path2" />
  <path
     inkscape:connector-curvature="0"
     style="fill:none;stroke-width:3.76636982"
     d="m 158.88679,38.400656 h 90.39288 v 90.392854 h -90.39288 z"
     id="path4" />
  <flowRoot
     xml:space="preserve"
     id="flowRoot856"
     style="font-style:normal;font-variant:normal;font-weight:normal;font-stretch:normal;font-size:40px;line-height:0.60000002;font-family:'open sans';-inkscape-font-specification:'open sans';letter-spacing:0px;word-spacing:0px;fill:#000000;fill-opacity:1;stroke:none"
     transform="translate(-0.75975018,-165.49216)"><flowRegion
       id="flowRegion858"
       style="line-height:1.10000002"><rect
         id="rect860"
         width="240.83412"
         height="117.54895"
         x="8.9270649"
         y="172.55876"
         style="line-height:1.10000002"
         ry="0" /></flowRegion><flowPara
       id="flowPara862"
	   class="categoryname"
       >Kneipe</flowPara></flowRoot></svg>
