<?xml version="1.0" encoding="UTF-8" standalone="no"?>
<svg
   mlns="http://www.w3.org/2000/svg" xmlns:xlink="http://www.w3.org/1999/xlink" viewBox="0 0 264.583 132.292" version="1.1" id="category"  width="100%" height="100%" preserveAspectRatio="xMinYMid">

  <style
     id="style815">
.categoryname {font-style:normal;font-variant:normal;font-weight:bold;font-stretch:normal;font-size:21.33333397px;font-family:'open sans';-inkscape-font-specification     :'open sans Bold';fill:#ffffff
}

</style>
  <defs
     id="defs815">
    <linearGradient
       id="linearGradient_main"
       x1="18.976"
       y1="281.766"
       x2="248.28"
       y2="211.101"
       gradientUnits="userSpaceOnUse"
       gradientTransform="translate(0.107,-164.712)">
      <stop
         style="stop-color:#00bcd4;stop-opacity:1"
         offset="0"
         id="linearGradient_main_start" />
      <stop
         style="stop-color:#00bcd4;stop-opacity:.8"
         offset="1"
         id="linearGradient_main_end" />
    </linearGradient>
  </defs>
 <path
     inkscape:connector-curvature="0"
     d="m 192.32469,105.31358 c -3.73787,0 -6.76216,3.05826 -6.76216,6.79615 0,3.73787 3.02429,6.79614 6.76216,6.79614 3.73789,0 6.79615,-3.05827 6.79615,-6.79614 0,-3.73789 -3.05826,-6.79615 -6.79615,-6.79615 z M 171.93627,50.944446 v 6.796149 h 6.79614 l 12.23305,25.791348 -4.58739,8.325277 c -0.54369,0.95146 -0.84951,2.072827 -0.84951,3.262152 0,3.73787 3.05826,6.796138 6.79613,6.796138 h 40.77685 v -6.796138 h -39.34966 c -0.47573,0 -0.84951,-0.373793 -0.84951,-0.849523 l 0.10191,-0.407772 3.05827,-5.538854 h 25.31563 c 2.54855,0 4.79128,-1.393211 5.94661,-3.500005 l 12.1651,-22.053478 c 0.27184,-0.47573 0.40777,-1.05341 0.40777,-1.631076 0,-1.868942 -1.52914,-3.398069 -3.39807,-3.398069 h -50.25746 l -3.1942,-6.796149 z m 54.36913,54.369134 c -3.73788,0 -6.76216,3.05826 -6.76216,6.79615 0,3.73787 3.02428,6.79614 6.76216,6.79614 3.73788,0 6.79614,-3.05827 6.79614,-6.79614 0,-3.73789 -3.05826,-6.79615 -6.79614,-6.79615 z"
     id="path2-2"
     style="stroke-width:3.39807057" />
  <rect
     style="opacity:1;vector-effect:none;fill:url(#linearGradient_main);fill-opacity:1;stroke:#000000;stroke-width:0.009;stroke-linecap:butt;stroke-linejoin:miter;stroke-miterlimit:4;stroke-dasharray:none;stroke-dashoffset:0;stroke-opacity:0;paint-order:fill markers stroke"
     rx="15"
     y="-0.0040052491"
     x="0.107"
     height="132.29201"
     width="264.58301"
     id="rect1366"
     class="rounded-bg" />
  <path
     inkscape:connector-curvature="0"
     style="fill:none;stroke-width:3.60947061"
     d="m 165.81467,42.308431 h 86.6273 v 86.627299 h -86.6273 z"
     id="path2-7" />
  <path
     inkscape:connector-curvature="0"
     style="fill:none;stroke-width:4.1379714"
     d="m 157.26746,34.014951 h 99.3113 v 99.311309 h -99.3113 z"
     id="path2" />
  <path
     inkscape:connector-curvature="0"
     style="fill:none;stroke-width:3.76636982"
     d="m 158.88679,38.400656 h 90.39288 v 90.392854 h -90.39288 z"
     id="path4" />
  <flowRoot
     xml:space="preserve"
     id="flowRoot856"
     style="font-style:normal;font-variant:normal;font-weight:normal;font-stretch:normal;font-size:40px;line-height:0.60000002;font-family:'open sans';-inkscape-font-specification:'open sans';letter-spacing:0px;word-spacing:0px;fill:#000000;fill-opacity:1;stroke:none"
     transform="translate(-0.75975018,-165.49216)"><flowRegion
       id="flowRegion858"
       style="line-height:1.10000002"><rect
         id="rect860"
         width="240.83412"
         height="117.54895"
         x="8.9270649"
         y="172.55876"
         style="line-height:1.10000002"
         ry="0" /></flowRegion><flowPara
       id="flowPara862"
	   class="categoryname"
       >Supermarkt</flowPara></flowRoot></svg>
