<?xml version="1.0" encoding="UTF-8" standalone="no"?>
<svg
   xmlns:dc="http://purl.org/dc/elements/1.1/"
   xmlns:cc="http://creativecommons.org/ns#"
   xmlns:rdf="http://www.w3.org/1999/02/22-rdf-syntax-ns#"
   xmlns:svg="http://www.w3.org/2000/svg"
   xmlns="http://www.w3.org/2000/svg"
   xmlns:sodipodi="http://sodipodi.sourceforge.net/DTD/sodipodi-0.dtd"
   xmlns:inkscape="http://www.inkscape.org/namespaces/inkscape"
   version="1.1"
   width="24"
   height="24"
   viewBox="0 0 24 24"
   id="svg4"
   sodipodi:docname="bookreligions.svg"
   inkscape:version="0.92.3 (2405546, 2018-03-11)">
  <metadata
     id="metadata10">
    <rdf:RDF>
      <cc:Work
         rdf:about="">
        <dc:format>image/svg+xml</dc:format>
        <dc:type
           rdf:resource="http://purl.org/dc/dcmitype/StillImage" />
        <dc:title></dc:title>
      </cc:Work>
    </rdf:RDF>
  </metadata>
  <defs
     id="defs8" />
  <sodipodi:namedview
     pagecolor="#ffffff"
     bordercolor="#666666"
     borderopacity="1"
     objecttolerance="10"
     gridtolerance="10"
     guidetolerance="10"
     inkscape:pageopacity="0"
     inkscape:pageshadow="2"
     inkscape:window-width="3840"
     inkscape:window-height="2115"
     id="namedview6"
     showgrid="false"
     inkscape:zoom="27.812867"
     inkscape:cx="-6.1173711"
     inkscape:cy="15.080177"
     inkscape:window-x="-13"
     inkscape:window-y="-13"
     inkscape:window-maximized="1"
     inkscape:current-layer="svg4" />
  <path
     d="m 17.741253,6.8538686 h 1.66249 v 3.3249794 h 3.047897 v 1.662489 h -3.047897 v 6.095796 h -1.66249 v -6.095796 h -3.047898 v -1.662489 h 3.047898 z"
     id="path2"
     inkscape:connector-curvature="0"
     style="stroke-width:0.55416316" />
  <path
     inkscape:connector-curvature="0"
     d="M 6.2976502,12.691881 4.7998788,15.274246 H 1.8043362 l 1.5494186,2.582364 -1.5494186,2.582365 h 2.9955426 l 1.4977714,2.582364 1.4977713,-2.582364 H 10.790964 L 9.2415453,17.85661 10.790964,15.274246 H 7.7954215 L 6.2976502,12.691881 m 0,1.549419 0.6197674,1.032946 H 5.6778827 L 6.2976502,14.2413 m -1.962597,1.807655 -0.5681201,1.032946 -0.6197674,-1.032946 h 1.1878875 m 0.9296512,0 H 7.3305959 L 8.3635416,17.85661 7.3305959,19.664265 H 5.2647044 L 4.2317587,17.85661 5.2647044,16.048955 m 4.1317829,0 -0.6197674,1.032946 -0.5681202,-1.032946 H 9.3964873 M 3.7669331,18.63132 4.3350532,19.664265 H 3.1988129 L 3.7669331,18.63132 m 5.0614341,0 0.6197671,1.032945 H 8.260247 L 8.8283672,18.63132 M 6.9690649,20.438975 6.2976502,21.47192 5.6778827,20.438975 Z"
     id="path2-0"
     style="stroke-width:0.51647288" />
  <path
     d="m 9.3916587,3.5135599 c -0.0378,0 -0.075597,0 -0.1133956,0 A 3.7798572,3.7798572 0 0 0 5.498406,7.2934173 3.7798572,3.7798572 0 0 0 9.2782631,11.073274 c 1.1339569,0 1.7765329,-0.377986 2.4569079,-0.944964 -2.0789219,0.566978 -3.9688505,-0.9449647 -3.9688505,-2.8348927 0,-1.8899289 1.8899286,-3.4018721 3.9688505,-2.8348931 C 11.115274,3.8386277 10.268586,3.49844 9.3916587,3.5135599 m 1.7009363,1.5875399 -0.566979,1.3229505 -1.3985469,0.113395 1.0961579,0.944965 -0.3401873,1.322949 1.2095553,-0.755971 1.209554,0.755971 -0.377986,-1.322949 1.133957,-0.944965 -1.398546,-0.113395 z"
     id="path3753"
     inkscape:connector-curvature="0"
     style="stroke-width:0.37798572" />
</svg>
