<?xml version="1.0" encoding="UTF-8" standalone="no"?>
<svg
   xmlns:dc="http://purl.org/dc/elements/1.1/"
   xmlns:cc="http://creativecommons.org/ns#"
   xmlns:rdf="http://www.w3.org/1999/02/22-rdf-syntax-ns#"
   xmlns:svg="http://www.w3.org/2000/svg"
   xmlns="http://www.w3.org/2000/svg"
   xmlns:sodipodi="http://sodipodi.sourceforge.net/DTD/sodipodi-0.dtd"
   xmlns:inkscape="http://www.inkscape.org/namespaces/inkscape"
   viewBox="0 0 264.583 132.292"
   version="1.1"
   id="bonn"
   width="100%"
   height="100%"
   preserveAspectRatio="xMinYMid"
   sodipodi:docname="silhouette_2.svg"
   inkscape:version="0.92.3 (2405546, 2018-03-11)">
  <metadata
     id="metadata42">
    <rdf:RDF>
      <cc:Work
         rdf:about="">
        <dc:format>image/svg+xml</dc:format>
        <dc:type
           rdf:resource="http://purl.org/dc/dcmitype/StillImage" />
        <dc:title></dc:title>
      </cc:Work>
    </rdf:RDF>
  </metadata>
  <sodipodi:namedview
     pagecolor="#ffffff"
     bordercolor="#666666"
     borderopacity="1"
     objecttolerance="10"
     gridtolerance="10"
     guidetolerance="10"
     inkscape:pageopacity="0"
     inkscape:pageshadow="2"
     inkscape:window-width="3840"
     inkscape:window-height="2055"
     id="namedview40"
     showgrid="false"
     showguides="false"
     inkscape:zoom="10.529777"
     inkscape:cx="108.45434"
     inkscape:cy="38.605056"
     inkscape:window-x="3827"
     inkscape:window-y="-13"
     inkscape:window-maximized="1"
     inkscape:current-layer="layer1" />
  <style
     id="style27">
text.cityname {
font-style:normal;font-variant:normal;font-weight:bold;font-stretch:normal;font-size:28.22222137px;line-height:1.25;font-family:'open sans';-inkscape-font-specification:'open sans Bold';letter-spacing:0px;word-spacing:0px;fill:#f9f9f9;fill-opacity:1;stroke:none;stroke-width:0.26458332
}
rect.rounded-bg {
opacity:1;vector-effect:none;fill:url(#linearGradient_main);fill-opacity:1;stroke:#000000;stroke-width:0.009;stroke-linecap:butt;stroke-linejoin:miter;stroke-miterlimit:4;stroke-dasharray:none;stroke-dashoffset:0;stroke-opacity:0;paint-order:fill markers stroke
}

</style>
  <defs
     id="defs815">
    <linearGradient
       id="linearGradient_main"
       x1="18.976"
       y1="281.766"
       x2="248.28"
       y2="211.101"
       gradientUnits="userSpaceOnUse"
       gradientTransform="translate(.107 -.004)">
      <stop
         style="stop-color:#4f698a;stop-opacity:1"
         offset="0"
         id="linearGradient_main_start" />
      <stop
         style="stop-color:#4f698a;stop-opacity:.8"
         offset="1"
         id="linearGradient_main_end" />
    </linearGradient>
  </defs>
  <g
     id="layer1"
     transform="translate(0 -164.708)">
    <g
       id="g28-0-7-6"
       style="clip-rule:evenodd;fill:#000000;fill-opacity:0.99564586;fill-rule:evenodd;image-rendering:optimizeQuality;shape-rendering:geometricPrecision;text-rendering:geometricPrecision"
       transform="matrix(0.31554799,0,0,0.30693,156.27725,147.46)"
       clip-path="none">
      <path
         style="fill:#000000;fill-opacity:0.99564586;stroke-width:0.31120914"
         d="M 94.992188 65.166016 L 94.992188 76.689453 L 85.166016 76.689453 L 85.166016 87.873047 L 81.492188 85.529297 L 71.138672 92.121094 L 71.1875 92.230469 L 71.1875 100.45117 L 67.945312 98.958984 L 65.015625 100.26953 L 65.015625 95.970703 L 62.029297 94.550781 L 61.623047 73.119141 L 59.287109 73.119141 L 58.779297 93.007812 L 56.904297 92.109375 L 52.900391 93.542969 L 52.900391 85.46875 L 33.982422 85.46875 L 33.982422 100.56055 L 27.492188 94.660156 L 20.248047 101.24023 L 20.267578 101.28906 L 18.439453 101.28906 L 18.439453 108.15039 L 14.265625 108.13867 L 11.646484 113.29883 L 12.853516 113.29883 L 12.861328 116.83203 L 8.0390625 116.84375 L 8.0351562 117.28516 L 4.6933594 117.28516 L 4.6933594 111.19727 L 0.10546875 111.19727 C -0.034950106 116.09219 -0.03224621 114.83493 0.11132812 117.28516 L 0 117.28516 L 0 132.29102 L 250.02344 132.29102 L 264.48828 132.29102 L 264.48828 121.06836 C 264.81836 119.82867 265.00195 118.55731 265.00195 117.28516 C 265.00353 115.95277 264.99805 104.94141 264.99805 104.94141 C 264.99805 104.94141 263.36722 101.21426 252.95508 98.646484 L 252.67578 94.287109 C 252.97019 94.170476 253.28365 93.99984 253.61719 93.771484 L 254.88867 94.521484 C 255.78704 94.720068 256.48198 94.821149 256.97266 94.824219 C 257.45103 94.834654 257.84054 94.733768 258.14062 94.519531 C 259.49117 93.478732 260.23308 92.82978 260.36719 92.572266 C 260.94748 91.821515 261.1039 90.910416 260.83789 89.839844 A 2.9951815 2.9133796 0 0 0 260.45898 88.998047 C 260.40345 88.881413 260.10311 88.525439 259.55469 87.929688 C 259.46002 87.814896 259.38637 87.693364 259.33398 87.564453 C 259.28728 87.443216 259.26511 87.301345 259.26953 87.138672 C 259.37808 86.395901 259.40935 85.956701 259.36328 85.822266 C 259.30711 85.4739 259.15703 85.149787 258.91406 84.849609 C 258.73483 84.632917 258.53628 84.488451 258.31445 84.416016 C 258.2545 84.395144 258.16527 84.383622 258.04883 84.380859 C 257.58781 84.42076 257.33004 84.427819 257.27734 84.402344 C 257.10632 84.377482 256.94601 84.305668 256.79297 84.1875 C 256.63583 84.064421 256.47331 83.881035 256.30859 83.636719 C 255.2878 81.881693 254.67417 80.942359 254.46875 80.818359 C 254.0396 80.367172 253.50197 80.142271 252.85352 80.142578 L 252.85156 80.142578 C 250.98857 80.273637 249.70312 80.688453 248.99219 81.386719 C 248.67916 81.679223 248.43395 82.075792 248.25977 82.580078 C 248.1143 82.935196 247.9506 83.712404 247.76758 84.908203 C 247.73318 85.053074 247.70116 85.133314 247.66992 85.152344 C 247.62795 85.181195 247.58318 85.17715 247.53711 85.140625 C 247.20168 84.833388 246.94742 84.658205 246.77734 84.615234 A 1.3552786 1.3182643 0 0 0 246.02539 84.572266 C 245.37694 84.717137 244.60483 85.181977 243.70898 85.966797 C 242.04762 87.493467 241.40863 88.855819 241.79297 90.054688 C 241.96116 90.66732 242.36875 91.281285 243.01562 91.894531 C 243.71456 92.549213 244.43971 92.997983 245.18945 93.244141 C 245.61039 93.379804 246.02496 93.432925 246.43359 93.400391 C 246.54845 93.422797 247.13746 93.283213 248.20117 92.982422 C 248.44162 92.935155 248.65813 92.925083 248.85156 92.951172 C 249.03237 92.970815 249.23645 93.043997 249.4668 93.173828 L 250.83594 94.150391 C 251.00128 94.257816 251.16775 94.340009 251.33594 94.396484 L 251.24414 98.253906 C 245.87572 97.102919 238.46241 96.269531 228.24023 96.269531 L 228.0625 93.3125 L 233.7207 93.298828 L 227.43555 76.763672 L 227.43359 76.755859 L 221.52344 93.328125 L 226.48242 93.316406 L 226.38281 95.535156 C 221.82283 93.662883 218.81708 91.883678 216.23242 91.048828 L 216.10547 88.972656 L 221.76562 88.958984 L 215.48047 72.423828 L 215.47656 72.416016 L 209.56836 88.986328 L 214.52539 88.974609 L 214.45312 90.625 C 211.84386 90.263436 209.40095 91.20254 205.75195 94.476562 L 195.24805 80.185547 L 194.91797 75.185547 L 192.52539 75.185547 L 192.06445 80.185547 L 184.24414 80.185547 L 183.74609 79.699219 L 180.89062 79.699219 L 180.05273 86.404297 L 175.98242 84.291016 L 167.6543 88.650391 L 167.6543 91.199219 L 163.98047 91.199219 L 163.98047 84.314453 L 154.86133 84.314453 L 154.86133 80.902344 L 149.92578 78.365234 L 149.92578 72.839844 L 144.32812 68.042969 L 140.69336 71.091797 C 140.50813 74.729838 140.01427 76.572966 140.14648 78.148438 C 138.31441 78.601773 135.00281 78.506984 130.72461 78.267578 L 121.66211 78.267578 L 121.66211 90.992188 L 118.86523 90.992188 L 118.86523 74.976562 L 116.83789 74.976562 C 116.36709 71.661718 113.373 69.113281 109.74609 69.113281 L 109.5 69.113281 L 109.5 65.166016 L 94.992188 65.166016 z "
         transform="matrix(3.1690901,0,0,3.2580719,-495.25668,56.195224)"
         id="path26-0-7" />
    </g>
  </g>
  <text
     xml:space="preserve"
     x="12"
     y="252"
     id="cityname-line-1"
     class="cityname" />
  <!-- Platzhalter für längere Stadtnamen ... Bad Neuenahr-Ahrweiler ... -->
</svg>
